<?xml version='1.0' encoding='utf-8'?>
<svg xmlns="http://www.w3.org/2000/svg" viewBox="526.60 3389.60 9925.80 11107.80" shape-rendering="geometricPrecision" width="1024" height="1145.94" preserveAspectRatio="xMidYMid meet"><g class="com.sun.star.drawing.CustomShape">
       <g id="id369">
        <rect class="BoundingBox" stroke="none" fill="none" x="2441" y="9422" width="3135" height="3162" />
        <path fill="var(--acc-4, #889A82)" stroke="none" d="M 2473,12551 L 2473,10221 3240,9454 5543,9454 5543,11783 4775,12551 2473,12551 Z " />
        <path fill="none" stroke="var(--on-acc, #F0F0FA)" stroke-width="26" stroke-linejoin="miter" d="M 2473,12551 L 2473,10221 3240,9454 5543,9454 5543,11783 4775,12551 2473,12551 Z " />
        <path fill="var(--acc-3, #ABB7A6)" stroke="none" d="M 2473,10221 L 3240,9454 5543,9454 4775,10221 2473,10221 Z " />
        <path fill="none" stroke="var(--on-acc, #F0F0FA)" stroke-width="26" stroke-linejoin="miter" d="M 2473,10221 L 3240,9454 5543,9454 4775,10221 2473,10221 Z " />
        <path fill="var(--acc-5, #48633E)" stroke="none" d="M 4775,12551 L 4775,10221 5543,9454 5543,11783 4775,12551 Z " />
        <path fill="none" stroke="var(--on-acc, #F0F0FA)" stroke-width="26" stroke-linejoin="miter" d="M 4775,12551 L 4775,10221 5543,9454 5543,11783 4775,12551 Z " />
       </g>
      </g>
      <g class="com.sun.star.drawing.CustomShape">
       <g id="id370">
        <rect class="BoundingBox" stroke="none" fill="none" x="4664" y="9422" width="3136" height="3162" />
        <path fill="var(--acc-4, #889A82)" stroke="none" d="M 4696,12551 L 4696,10221 5463,9454 7767,9454 7767,11783 6999,12551 4696,12551 Z " />
        <path fill="none" stroke="var(--on-acc, #F0F0FA)" stroke-width="26" stroke-linejoin="miter" d="M 4696,12551 L 4696,10221 5463,9454 7767,9454 7767,11783 6999,12551 4696,12551 Z " />
        <path fill="var(--acc-3, #ABB7A6)" stroke="none" d="M 4696,10221 L 5463,9454 7767,9454 6999,10221 4696,10221 Z " />
        <path fill="none" stroke="var(--on-acc, #F0F0FA)" stroke-width="26" stroke-linejoin="miter" d="M 4696,10221 L 5463,9454 7767,9454 6999,10221 4696,10221 Z " />
        <path fill="var(--acc-5, #48633E)" stroke="none" d="M 6999,12551 L 6999,10221 7767,9454 7767,11783 6999,12551 Z " />
        <path fill="none" stroke="var(--on-acc, #F0F0FA)" stroke-width="26" stroke-linejoin="miter" d="M 6999,12551 L 6999,10221 7767,9454 7767,11783 6999,12551 Z " />
       </g>
      </g>
      <g class="com.sun.star.drawing.CustomShape">
       <g id="id371">
        <rect class="BoundingBox" stroke="none" fill="none" x="6939" y="9422" width="3135" height="3162" />
        <path fill="var(--acc-4, #889A82)" stroke="none" d="M 6971,12551 L 6971,10221 7738,9454 10041,9454 10041,11783 9273,12551 6971,12551 Z " />
        <path fill="none" stroke="var(--on-acc, #F0F0FA)" stroke-width="26" stroke-linejoin="miter" d="M 6971,12551 L 6971,10221 7738,9454 10041,9454 10041,11783 9273,12551 6971,12551 Z " />
        <path fill="var(--acc-3, #ABB7A6)" stroke="none" d="M 6971,10221 L 7738,9454 10041,9454 9273,10221 6971,10221 Z " />
        <path fill="none" stroke="var(--on-acc, #F0F0FA)" stroke-width="26" stroke-linejoin="miter" d="M 6971,10221 L 7738,9454 10041,9454 9273,10221 6971,10221 Z " />
        <path fill="var(--acc-5, #48633E)" stroke="none" d="M 9273,12551 L 9273,10221 10041,9454 10041,11783 9273,12551 Z " />
        <path fill="none" stroke="var(--on-acc, #F0F0FA)" stroke-width="26" stroke-linejoin="miter" d="M 9273,12551 L 9273,10221 10041,9454 10041,11783 9273,12551 Z " />
       </g>
      </g>
      <g class="com.sun.star.drawing.CustomShape">
       <g id="id372">
        <rect class="BoundingBox" stroke="none" fill="none" x="2441" y="7094" width="3135" height="3162" />
        <path fill="var(--acc-4, #889A82)" stroke="none" d="M 2473,10223 L 2473,7893 3240,7126 5543,7126 5543,9455 4775,10223 2473,10223 Z " />
        <path fill="none" stroke="var(--on-acc, #F0F0FA)" stroke-width="26" stroke-linejoin="miter" d="M 2473,10223 L 2473,7893 3240,7126 5543,7126 5543,9455 4775,10223 2473,10223 Z " />
        <path fill="var(--acc-3, #ABB7A6)" stroke="none" d="M 2473,7893 L 3240,7126 5543,7126 4775,7893 2473,7893 Z " />
        <path fill="none" stroke="var(--on-acc, #F0F0FA)" stroke-width="26" stroke-linejoin="miter" d="M 2473,7893 L 3240,7126 5543,7126 4775,7893 2473,7893 Z " />
        <path fill="var(--acc-5, #48633E)" stroke="none" d="M 4775,10223 L 4775,7893 5543,7126 5543,9455 4775,10223 Z " />
        <path fill="none" stroke="var(--on-acc, #F0F0FA)" stroke-width="26" stroke-linejoin="miter" d="M 4775,10223 L 4775,7893 5543,7126 5543,9455 4775,10223 Z " />
       </g>
      </g>
      <g class="com.sun.star.drawing.CustomShape">
       <g id="id373">
        <rect class="BoundingBox" stroke="none" fill="none" x="4664" y="7094" width="3136" height="3162" />
        <path fill="var(--acc-4, #889A82)" stroke="none" d="M 4696,10223 L 4696,7893 5463,7126 7767,7126 7767,9455 6999,10223 4696,10223 Z " />
        <path fill="none" stroke="var(--on-acc, #F0F0FA)" stroke-width="26" stroke-linejoin="miter" d="M 4696,10223 L 4696,7893 5463,7126 7767,7126 7767,9455 6999,10223 4696,10223 Z " />
        <path fill="var(--acc-3, #ABB7A6)" stroke="none" d="M 4696,7893 L 5463,7126 7767,7126 6999,7893 4696,7893 Z " />
        <path fill="none" stroke="var(--on-acc, #F0F0FA)" stroke-width="26" stroke-linejoin="miter" d="M 4696,7893 L 5463,7126 7767,7126 6999,7893 4696,7893 Z " />
        <path fill="var(--acc-5, #48633E)" stroke="none" d="M 6999,10223 L 6999,7893 7767,7126 7767,9455 6999,10223 Z " />
        <path fill="none" stroke="var(--on-acc, #F0F0FA)" stroke-width="26" stroke-linejoin="miter" d="M 6999,10223 L 6999,7893 7767,7126 7767,9455 6999,10223 Z " />
       </g>
      </g>
      <g class="com.sun.star.drawing.CustomShape">
       <g id="id374">
        <rect class="BoundingBox" stroke="none" fill="none" x="2441" y="4818" width="3135" height="3161" />
        <path fill="var(--acc-4, #889A82)" fill-opacity="1" stroke="none" d="M 2473,7946 L 2473,5617 3240,4850 5543,4850 5543,7178 4775,7946 2473,7946 Z " />
        <path fill="none" stroke="var(--on-acc, #F0F0FA)" stroke-width="26" stroke-linejoin="miter" stroke-dasharray="26,26" d="M 2473,7946 L 2473,5617 3240,4850 5543,4850 5543,7178 4775,7946 2473,7946 Z " />
        <path fill="var(--acc-3, #ABB7A6)" fill-opacity="1" stroke="none" d="M 2473,5617 L 3240,4850 5543,4850 4775,5617 2473,5617 Z " />
        <path fill="none" stroke="var(--on-acc, #F0F0FA)" stroke-width="26" stroke-linejoin="miter" stroke-dasharray="26,26" d="M 2473,5617 L 3240,4850 5543,4850 4775,5617 2473,5617 Z " />
        <path fill="var(--acc-5, #48633E)" fill-opacity="1" stroke="none" d="M 4775,7946 L 4775,5617 5543,4850 5543,7178 4775,7946 Z " />
        <path fill="none" stroke="var(--on-acc, #F0F0FA)" stroke-width="26" stroke-linejoin="miter" stroke-dasharray="26,26" d="M 4775,7946 L 4775,5617 5543,4850 5543,7178 4775,7946 Z " />
       </g>
      </g>
      <g class="com.sun.star.drawing.CustomShape">
       <g id="id375">
        <rect class="BoundingBox" stroke="none" fill="none" x="4664" y="4818" width="3136" height="3161" />
        <path fill="var(--acc-4, #889A82)" stroke="none" d="M 4696,7946 L 4696,5617 5463,4850 7767,4850 7767,7178 6999,7946 4696,7946 Z " />
        <path fill="none" stroke="var(--on-acc, #F0F0FA)" stroke-width="26" stroke-linejoin="miter" d="M 4696,7946 L 4696,5617 5463,4850 7767,4850 7767,7178 6999,7946 4696,7946 Z " />
        <path fill="var(--acc-3, #ABB7A6)" stroke="none" d="M 4696,5617 L 5463,4850 7767,4850 6999,5617 4696,5617 Z " />
        <path fill="none" stroke="var(--on-acc, #F0F0FA)" stroke-width="26" stroke-linejoin="miter" d="M 4696,5617 L 5463,4850 7767,4850 6999,5617 4696,5617 Z " />
        <path fill="var(--acc-5, #48633E)" stroke="none" d="M 6999,7946 L 6999,5617 7767,4850 7767,7178 6999,7946 Z " />
        <path fill="none" stroke="var(--on-acc, #F0F0FA)" stroke-width="26" stroke-linejoin="miter" d="M 6999,7946 L 6999,5617 7767,4850 7767,7178 6999,7946 Z " />
       </g>
      </g>
      <g class="com.sun.star.drawing.CustomShape">
       <g id="id376">
        <rect class="BoundingBox" stroke="none" fill="none" x="6939" y="4818" width="3135" height="3161" />
        <path fill="var(--acc-4, #889A82)" fill-opacity="1" stroke="none" d="M 6971,7946 L 6971,5617 7738,4850 10041,4850 10041,7178 9273,7946 6971,7946 Z " />
        <path fill="none" stroke="var(--on-acc, #F0F0FA)" stroke-width="26" stroke-linejoin="miter" stroke-dasharray="26,26" d="M 6971,7946 L 6971,5617 7738,4850 10041,4850 10041,7178 9273,7946 6971,7946 Z " />
        <path fill="var(--acc-3, #ABB7A6)" fill-opacity="1" stroke="none" d="M 6971,5617 L 7738,4850 10041,4850 9273,5617 6971,5617 Z " />
        <path fill="none" stroke="var(--on-acc, #F0F0FA)" stroke-width="26" stroke-linejoin="miter" stroke-dasharray="26,26" d="M 6971,5617 L 7738,4850 10041,4850 9273,5617 6971,5617 Z " />
        <path fill="var(--acc-5, #48633E)" fill-opacity="1" stroke="none" d="M 9273,7946 L 9273,5617 10041,4850 10041,7178 9273,7946 Z " />
        <path fill="none" stroke="var(--on-acc, #F0F0FA)" stroke-width="26" stroke-linejoin="miter" stroke-dasharray="26,26" d="M 9273,7946 L 9273,5617 10041,4850 10041,7178 9273,7946 Z " />
       </g>
      </g>
      <g class="com.sun.star.drawing.CustomShape">
       <g id="id377">
        <rect class="BoundingBox" stroke="none" fill="none" x="1674" y="10216" width="3135" height="3162" />
        <path fill="var(--acc-4, #889A82)" stroke="none" d="M 1706,13345 L 1706,11015 2473,10248 4776,10248 4776,12577 4008,13345 1706,13345 Z " />
        <path fill="none" stroke="var(--on-acc, #F0F0FA)" stroke-width="26" stroke-linejoin="miter" d="M 1706,13345 L 1706,11015 2473,10248 4776,10248 4776,12577 4008,13345 1706,13345 Z " />
        <path fill="var(--acc-3, #ABB7A6)" stroke="none" d="M 1706,11015 L 2473,10248 4776,10248 4008,11015 1706,11015 Z " />
        <path fill="none" stroke="var(--on-acc, #F0F0FA)" stroke-width="26" stroke-linejoin="miter" d="M 1706,11015 L 2473,10248 4776,10248 4008,11015 1706,11015 Z " />
        <path fill="var(--acc-5, #48633E)" stroke="none" d="M 4008,13345 L 4008,11015 4776,10248 4776,12577 4008,13345 Z " />
        <path fill="none" stroke="var(--on-acc, #F0F0FA)" stroke-width="26" stroke-linejoin="miter" d="M 4008,13345 L 4008,11015 4776,10248 4776,12577 4008,13345 Z " />
       </g>
      </g>
      <g class="com.sun.star.drawing.CustomShape">
       <g id="id378">
        <rect class="BoundingBox" stroke="none" fill="none" x="3896" y="10216" width="3135" height="3162" />
        <path fill="var(--acc-4, #889A82)" stroke="none" d="M 3928,13345 L 3928,11015 4695,10248 6998,10248 6998,12577 6230,13345 3928,13345 Z " />
        <path fill="none" stroke="var(--on-acc, #F0F0FA)" stroke-width="26" stroke-linejoin="miter" d="M 3928,13345 L 3928,11015 4695,10248 6998,10248 6998,12577 6230,13345 3928,13345 Z " />
        <path fill="var(--acc-3, #ABB7A6)" stroke="none" d="M 3928,11015 L 4695,10248 6998,10248 6230,11015 3928,11015 Z " />
        <path fill="none" stroke="var(--on-acc, #F0F0FA)" stroke-width="26" stroke-linejoin="miter" d="M 3928,11015 L 4695,10248 6998,10248 6230,11015 3928,11015 Z " />
        <path fill="var(--acc-5, #48633E)" stroke="none" d="M 6230,13345 L 6230,11015 6998,10248 6998,12577 6230,13345 Z " />
        <path fill="none" stroke="var(--on-acc, #F0F0FA)" stroke-width="26" stroke-linejoin="miter" d="M 6230,13345 L 6230,11015 6998,10248 6998,12577 6230,13345 Z " />
       </g>
      </g>
      <g class="com.sun.star.drawing.CustomShape">
       <g id="id379">
        <rect class="BoundingBox" stroke="none" fill="none" x="6172" y="10216" width="3136" height="3162" />
        <path fill="var(--acc-4, #889A82)" stroke="none" d="M 6204,13345 L 6204,11015 6971,10248 9275,10248 9275,12577 8507,13345 6204,13345 Z " />
        <path fill="none" stroke="var(--on-acc, #F0F0FA)" stroke-width="26" stroke-linejoin="miter" d="M 6204,13345 L 6204,11015 6971,10248 9275,10248 9275,12577 8507,13345 6204,13345 Z " />
        <path fill="var(--acc-3, #ABB7A6)" stroke="none" d="M 6204,11015 L 6971,10248 9275,10248 8507,11015 6204,11015 Z " />
        <path fill="none" stroke="var(--on-acc, #F0F0FA)" stroke-width="26" stroke-linejoin="miter" d="M 6204,11015 L 6971,10248 9275,10248 8507,11015 6204,11015 Z " />
        <path fill="var(--acc-5, #48633E)" stroke="none" d="M 8507,13345 L 8507,11015 9275,10248 9275,12577 8507,13345 Z " />
        <path fill="none" stroke="var(--on-acc, #F0F0FA)" stroke-width="26" stroke-linejoin="miter" d="M 8507,13345 L 8507,11015 9275,10248 9275,12577 8507,13345 Z " />
       </g>
      </g>
      <g class="com.sun.star.drawing.CustomShape">
       <g id="id380">
        <rect class="BoundingBox" stroke="none" fill="none" x="1674" y="7887" width="3135" height="3161" />
        <path fill="var(--acc-4, #889A82)" fill-opacity="1" stroke="none" d="M 1706,11015 L 1706,8686 2473,7919 4776,7919 4776,10247 4008,11015 1706,11015 Z " />
        <path fill="none" stroke="var(--on-acc, #F0F0FA)" stroke-width="26" stroke-linejoin="miter" stroke-dasharray="26,26" d="M 1706,11015 L 1706,8686 2473,7919 4776,7919 4776,10247 4008,11015 1706,11015 Z " />
        <path fill="var(--acc-3, #ABB7A6)" fill-opacity="1" stroke="none" d="M 1706,8686 L 2473,7919 4776,7919 4008,8686 1706,8686 Z " />
        <path fill="none" stroke="var(--on-acc, #F0F0FA)" stroke-width="26" stroke-linejoin="miter" stroke-dasharray="26,26" d="M 1706,8686 L 2473,7919 4776,7919 4008,8686 1706,8686 Z " />
        <path fill="var(--acc-5, #48633E)" fill-opacity="1" stroke="none" d="M 4008,11015 L 4008,8686 4776,7919 4776,10247 4008,11015 Z " />
        <path fill="none" stroke="var(--on-acc, #F0F0FA)" stroke-width="26" stroke-linejoin="miter" stroke-dasharray="26,26" d="M 4008,11015 L 4008,8686 4776,7919 4776,10247 4008,11015 Z " />
       </g>
      </g>
      <g class="com.sun.star.drawing.CustomShape">
       <g id="id381">
        <rect class="BoundingBox" stroke="none" fill="none" x="3896" y="7887" width="3135" height="3161" />
        <path fill="var(--acc-4, #889A82)" stroke="none" d="M 3928,11015 L 3928,8686 4695,7919 6998,7919 6998,10247 6230,11015 3928,11015 Z " />
        <path fill="none" stroke="var(--on-acc, #F0F0FA)" stroke-width="26" stroke-linejoin="miter" d="M 3928,11015 L 3928,8686 4695,7919 6998,7919 6998,10247 6230,11015 3928,11015 Z " />
        <path fill="var(--acc-3, #ABB7A6)" stroke="none" d="M 3928,8686 L 4695,7919 6998,7919 6230,8686 3928,8686 Z " />
        <path fill="none" stroke="var(--on-acc, #F0F0FA)" stroke-width="26" stroke-linejoin="miter" d="M 3928,8686 L 4695,7919 6998,7919 6230,8686 3928,8686 Z " />
        <path fill="var(--acc-5, #48633E)" stroke="none" d="M 6230,11015 L 6230,8686 6998,7919 6998,10247 6230,11015 Z " />
        <path fill="none" stroke="var(--on-acc, #F0F0FA)" stroke-width="26" stroke-linejoin="miter" d="M 6230,11015 L 6230,8686 6998,7919 6998,10247 6230,11015 Z " />
       </g>
      </g>
      <g class="com.sun.star.drawing.CustomShape">
       <g id="id382">
        <rect class="BoundingBox" stroke="none" fill="none" x="6229" y="7887" width="3135" height="3161" />
        <path fill="var(--acc-4, #889A82)" fill-opacity="1" stroke="none" d="M 6261,11015 L 6261,8686 7028,7919 9331,7919 9331,10247 8563,11015 6261,11015 Z " />
        <path fill="none" stroke="var(--on-acc, #F0F0FA)" stroke-width="26" stroke-linejoin="miter" stroke-dasharray="26,26" d="M 6261,11015 L 6261,8686 7028,7919 9331,7919 9331,10247 8563,11015 6261,11015 Z " />
        <path fill="var(--acc-3, #ABB7A6)" fill-opacity="1" stroke="none" d="M 6261,8686 L 7028,7919 9331,7919 8563,8686 6261,8686 Z " />
        <path fill="none" stroke="var(--on-acc, #F0F0FA)" stroke-width="26" stroke-linejoin="miter" stroke-dasharray="26,26" d="M 6261,8686 L 7028,7919 9331,7919 8563,8686 6261,8686 Z " />
        <path fill="var(--acc-5, #48633E)" fill-opacity="1" stroke="none" d="M 8563,11015 L 8563,8686 9331,7919 9331,10247 8563,11015 Z " />
        <path fill="none" stroke="var(--on-acc, #F0F0FA)" stroke-width="26" stroke-linejoin="miter" stroke-dasharray="26,26" d="M 8563,11015 L 8563,8686 9331,7919 9331,10247 8563,11015 Z " />
       </g>
      </g>
      <g class="com.sun.star.drawing.CustomShape">
       <g id="id383">
        <rect class="BoundingBox" stroke="none" fill="none" x="1674" y="5586" width="3135" height="3162" />
        <path fill="var(--acc-4, #889A82)" stroke="none" d="M 1706,8715 L 1706,6385 2473,5618 4776,5618 4776,7947 4008,8715 1706,8715 Z " />
        <path fill="none" stroke="var(--on-acc, #F0F0FA)" stroke-width="26" stroke-linejoin="miter" d="M 1706,8715 L 1706,6385 2473,5618 4776,5618 4776,7947 4008,8715 1706,8715 Z " />
        <path fill="var(--acc-3, #ABB7A6)" stroke="none" d="M 1706,6385 L 2473,5618 4776,5618 4008,6385 1706,6385 Z " />
        <path fill="none" stroke="var(--on-acc, #F0F0FA)" stroke-width="26" stroke-linejoin="miter" d="M 1706,6385 L 2473,5618 4776,5618 4008,6385 1706,6385 Z " />
        <path fill="var(--acc-5, #48633E)" stroke="none" d="M 4008,8715 L 4008,6385 4776,5618 4776,7947 4008,8715 Z " />
        <path fill="none" stroke="var(--on-acc, #F0F0FA)" stroke-width="26" stroke-linejoin="miter" d="M 4008,8715 L 4008,6385 4776,5618 4776,7947 4008,8715 Z " />
       </g>
      </g>
      <g class="com.sun.star.drawing.CustomShape">
       <g id="id384">
        <rect class="BoundingBox" stroke="none" fill="none" x="3896" y="3769" width="3135" height="3162" />
        <path fill="var(--acc-4, #889A82)" stroke="none" d="M 3928,6898 L 3928,4568 4695,3801 6998,3801 6998,6130 6230,6898 3928,6898 Z " />
        <path fill="none" stroke="var(--on-acc, #F0F0FA)" stroke-width="26" stroke-linejoin="miter" d="M 3928,6898 L 3928,4568 4695,3801 6998,3801 6998,6130 6230,6898 3928,6898 Z " />
        <path fill="var(--acc-3, #ABB7A6)" stroke="none" d="M 3928,4568 L 4695,3801 6998,3801 6230,4568 3928,4568 Z " />
        <path fill="none" stroke="var(--on-acc, #F0F0FA)" stroke-width="26" stroke-linejoin="miter" d="M 3928,4568 L 4695,3801 6998,3801 6230,4568 3928,4568 Z " />
        <path fill="var(--acc-5, #48633E)" stroke="none" d="M 6230,6898 L 6230,4568 6998,3801 6998,6130 6230,6898 Z " />
        <path fill="none" stroke="var(--on-acc, #F0F0FA)" stroke-width="26" stroke-linejoin="miter" d="M 6230,6898 L 6230,4568 6998,3801 6998,6130 6230,6898 Z " />
       </g>
      </g>
      <g class="com.sun.star.drawing.CustomShape">
       <g id="id385">
        <rect class="BoundingBox" stroke="none" fill="none" x="6172" y="5586" width="3136" height="3162" />
        <path fill="var(--acc-4, #889A82)" stroke="none" d="M 6204,8715 L 6204,6385 6971,5618 9275,5618 9275,7947 8507,8715 6204,8715 Z " />
        <path fill="none" stroke="var(--on-acc, #F0F0FA)" stroke-width="26" stroke-linejoin="miter" d="M 6204,8715 L 6204,6385 6971,5618 9275,5618 9275,7947 8507,8715 6204,8715 Z " />
        <path fill="var(--acc-3, #ABB7A6)" stroke="none" d="M 6204,6385 L 6971,5618 9275,5618 8507,6385 6204,6385 Z " />
        <path fill="none" stroke="var(--on-acc, #F0F0FA)" stroke-width="26" stroke-linejoin="miter" d="M 6204,6385 L 6971,5618 9275,5618 8507,6385 6204,6385 Z " />
        <path fill="var(--acc-5, #48633E)" stroke="none" d="M 8507,8715 L 8507,6385 9275,5618 9275,7947 8507,8715 Z " />
        <path fill="none" stroke="var(--on-acc, #F0F0FA)" stroke-width="26" stroke-linejoin="miter" d="M 8507,8715 L 8507,6385 9275,5618 9275,7947 8507,8715 Z " />
       </g>
      </g>
      <g class="com.sun.star.drawing.CustomShape">
       <g id="id386">
        <rect class="BoundingBox" stroke="none" fill="none" x="906" y="10957" width="3135" height="3162" />
        <path fill="var(--acc-4, #889A82)" fill-opacity="1" stroke="none" d="M 938,14086 L 938,11756 1705,10989 4008,10989 4008,13318 3240,14086 938,14086 Z " />
        <path fill="none" stroke="var(--on-acc, #F0F0FA)" stroke-width="26" stroke-linejoin="miter" stroke-dasharray="26,26" d="M 938,14086 L 938,11756 1705,10989 4008,10989 4008,13318 3240,14086 938,14086 Z " />
        <path fill="var(--acc-3, #ABB7A6)" fill-opacity="1" stroke="none" d="M 938,11756 L 1705,10989 4008,10989 3240,11756 938,11756 Z " />
        <path fill="none" stroke="var(--on-acc, #F0F0FA)" stroke-width="26" stroke-linejoin="miter" stroke-dasharray="26,26" d="M 938,11756 L 1705,10989 4008,10989 3240,11756 938,11756 Z " />
        <path fill="var(--acc-5, #48633E)" fill-opacity="1" stroke="none" d="M 3240,14086 L 3240,11756 4008,10989 4008,13318 3240,14086 Z " />
        <path fill="none" stroke="var(--on-acc, #F0F0FA)" stroke-width="26" stroke-linejoin="miter" stroke-dasharray="26,26" d="M 3240,14086 L 3240,11756 4008,10989 4008,13318 3240,14086 Z " />
       </g>
      </g>
      <g class="com.sun.star.drawing.CustomShape">
       <g id="id387">
        <rect class="BoundingBox" stroke="none" fill="none" x="3129" y="10957" width="3135" height="3162" />
        <path fill="var(--acc-4, #889A82)" stroke="none" d="M 3161,14086 L 3161,11756 3928,10989 6231,10989 6231,13318 5463,14086 3161,14086 Z " />
        <path fill="none" stroke="var(--on-acc, #F0F0FA)" stroke-width="26" stroke-linejoin="miter" d="M 3161,14086 L 3161,11756 3928,10989 6231,10989 6231,13318 5463,14086 3161,14086 Z " />
        <path fill="var(--acc-3, #ABB7A6)" stroke="none" d="M 3161,11756 L 3928,10989 6231,10989 5463,11756 3161,11756 Z " />
        <path fill="none" stroke="var(--on-acc, #F0F0FA)" stroke-width="26" stroke-linejoin="miter" d="M 3161,11756 L 3928,10989 6231,10989 5463,11756 3161,11756 Z " />
        <path fill="var(--acc-5, #48633E)" stroke="none" d="M 5463,14086 L 5463,11756 6231,10989 6231,13318 5463,14086 Z " />
        <path fill="none" stroke="var(--on-acc, #F0F0FA)" stroke-width="26" stroke-linejoin="miter" d="M 5463,14086 L 5463,11756 6231,10989 6231,13318 5463,14086 Z " />
       </g>
      </g>
      <g class="com.sun.star.drawing.CustomShape">
       <g id="id388">
        <rect class="BoundingBox" stroke="none" fill="none" x="5404" y="10957" width="3135" height="3162" />
        <path fill="var(--acc-4, #889A82)" fill-opacity="1" stroke="none" d="M 5436,14086 L 5436,11756 6203,10989 8506,10989 8506,13318 7738,14086 5436,14086 Z " />
        <path fill="none" stroke="var(--on-acc, #F0F0FA)" stroke-width="26" stroke-linejoin="miter" stroke-dasharray="26,26" d="M 5436,14086 L 5436,11756 6203,10989 8506,10989 8506,13318 7738,14086 5436,14086 Z " />
        <path fill="var(--acc-3, #ABB7A6)" fill-opacity="1" stroke="none" d="M 5436,11756 L 6203,10989 8506,10989 7738,11756 5436,11756 Z " />
        <path fill="none" stroke="var(--on-acc, #F0F0FA)" stroke-width="26" stroke-linejoin="miter" stroke-dasharray="26,26" d="M 5436,11756 L 6203,10989 8506,10989 7738,11756 5436,11756 Z " />
        <path fill="var(--acc-5, #48633E)" fill-opacity="1" stroke="none" d="M 7738,14086 L 7738,11756 8506,10989 8506,13318 7738,14086 Z " />
        <path fill="none" stroke="var(--on-acc, #F0F0FA)" stroke-width="26" stroke-linejoin="miter" stroke-dasharray="26,26" d="M 7738,14086 L 7738,11756 8506,10989 8506,13318 7738,14086 Z " />
       </g>
      </g>
      <g class="com.sun.star.drawing.CustomShape">
       <g id="id389">
        <rect class="BoundingBox" stroke="none" fill="none" x="3129" y="6326" width="3135" height="3161" />
        <path fill="var(--acc-4, #889A82)" stroke="none" d="M 3161,9454 L 3161,7125 3928,6358 6231,6358 6231,8686 5463,9454 3161,9454 Z " />
        <path fill="none" stroke="var(--on-acc, #F0F0FA)" stroke-width="26" stroke-linejoin="miter" d="M 3161,9454 L 3161,7125 3928,6358 6231,6358 6231,8686 5463,9454 3161,9454 Z " />
        <path fill="var(--acc-3, #ABB7A6)" stroke="none" d="M 3161,7125 L 3928,6358 6231,6358 5463,7125 3161,7125 Z " />
        <path fill="none" stroke="var(--on-acc, #F0F0FA)" stroke-width="26" stroke-linejoin="miter" d="M 3161,7125 L 3928,6358 6231,6358 5463,7125 3161,7125 Z " />
        <path fill="var(--acc-5, #48633E)" stroke="none" d="M 5463,9454 L 5463,7125 6231,6358 6231,8686 5463,9454 Z " />
        <path fill="none" stroke="var(--on-acc, #F0F0FA)" stroke-width="26" stroke-linejoin="miter" d="M 5463,9454 L 5463,7125 6231,6358 6231,8686 5463,9454 Z " />
       </g>
      </g>
      </svg>