<?xml version='1.0' encoding='utf-8'?>
<svg xmlns="http://www.w3.org/2000/svg" viewBox="4975.20 2629.20 14736.60 9910.60" shape-rendering="geometricPrecision" width="1024" height="688.66" preserveAspectRatio="xMidYMid meet"><g class="com.sun.star.drawing.CustomShape">
       <g id="id956">
        <rect class="BoundingBox" stroke="none" fill="none" x="5478" y="9883" width="13732" height="1248" />
        <path fill="var(--acc-4, #889A82)" stroke="none" d="M 5521,11087 L 5521,10216 5811,9926 19166,9926 19166,10796 18875,11087 5521,11087 Z " />
        <path fill="none" stroke="var(--acc-2, #CFD6CD)" stroke-width="35" stroke-linejoin="miter" d="M 5521,11087 L 5521,10216 5811,9926 19166,9926 19166,10796 18875,11087 5521,11087 Z " />
        <path fill="var(--acc-3, #ABB7A6)" stroke="none" d="M 5521,10216 L 5811,9926 19166,9926 18875,10216 5521,10216 Z " />
        <path fill="none" stroke="var(--acc-2, #CFD6CD)" stroke-width="35" stroke-linejoin="miter" d="M 5521,10216 L 5811,9926 19166,9926 18875,10216 5521,10216 Z " />
        <path fill="var(--acc-5, #48633E)" stroke="none" d="M 18875,11087 L 18875,10216 19166,9926 19166,10796 18875,11087 Z " />
        <path fill="none" stroke="var(--acc-2, #CFD6CD)" stroke-width="35" stroke-linejoin="miter" d="M 18875,11087 L 18875,10216 19166,9926 19166,10796 18875,11087 Z " />
       </g>
      </g>
      <g class="com.sun.star.drawing.CustomShape">
       <g id="id957">
        <rect class="BoundingBox" stroke="none" fill="none" x="5478" y="7991" width="13732" height="1247" />
        <path fill="var(--acc-4, #889A82)" stroke="none" d="M 5521,9194 L 5521,8324 5811,8034 19166,8034 19166,8904 18876,9194 5521,9194 Z " />
        <path fill="none" stroke="var(--acc-2, #CFD6CD)" stroke-width="35" stroke-linejoin="miter" d="M 5521,9194 L 5521,8324 5811,8034 19166,8034 19166,8904 18876,9194 5521,9194 Z " />
        <path fill="var(--acc-3, #ABB7A6)" stroke="none" d="M 5521,8324 L 5811,8034 19166,8034 18876,8324 5521,8324 Z " />
        <path fill="none" stroke="var(--acc-2, #CFD6CD)" stroke-width="35" stroke-linejoin="miter" d="M 5521,8324 L 5811,8034 19166,8034 18876,8324 5521,8324 Z " />
        <path fill="var(--acc-5, #48633E)" stroke="none" d="M 18876,9194 L 18876,8324 19166,8034 19166,8904 18876,9194 Z " />
        <path fill="none" stroke="var(--acc-2, #CFD6CD)" stroke-width="35" stroke-linejoin="miter" d="M 18876,9194 L 18876,8324 19166,8034 19166,8904 18876,9194 Z " />
       </g>
      </g>
      <g class="com.sun.star.drawing.CustomShape">
       <g id="id958">
        <rect class="BoundingBox" stroke="none" fill="none" x="5478" y="6104" width="13732" height="1248" />
        <path fill="var(--acc-4, #889A82)" stroke="none" d="M 5521,7308 L 5521,6437 5811,6147 19166,6147 19166,7017 18875,7308 5521,7308 Z " />
        <path fill="none" stroke="var(--acc-2, #CFD6CD)" stroke-width="35" stroke-linejoin="miter" d="M 5521,7308 L 5521,6437 5811,6147 19166,6147 19166,7017 18875,7308 5521,7308 Z " />
        <path fill="var(--acc-3, #ABB7A6)" stroke="none" d="M 5521,6437 L 5811,6147 19166,6147 18875,6437 5521,6437 Z " />
        <path fill="none" stroke="var(--acc-2, #CFD6CD)" stroke-width="35" stroke-linejoin="miter" d="M 5521,6437 L 5811,6147 19166,6147 18875,6437 5521,6437 Z " />
        <path fill="var(--acc-5, #48633E)" stroke="none" d="M 18875,7308 L 18875,6437 19166,6147 19166,7017 18875,7308 Z " />
        <path fill="none" stroke="var(--acc-2, #CFD6CD)" stroke-width="35" stroke-linejoin="miter" d="M 18875,7308 L 18875,6437 19166,6147 19166,7017 18875,7308 Z " />
       </g>
      </g>
      <g class="com.sun.star.drawing.CustomShape">
       <g id="id959">
        <rect class="BoundingBox" stroke="none" fill="none" x="5478" y="4212" width="13732" height="1248" />
        <path fill="var(--acc-4, #889A82)" stroke="none" d="M 5521,5416 L 5521,4545 5811,4255 19166,4255 19166,5125 18875,5416 5521,5416 Z " />
        <path fill="none" stroke="var(--acc-2, #CFD6CD)" stroke-width="35" stroke-linejoin="miter" d="M 5521,5416 L 5521,4545 5811,4255 19166,4255 19166,5125 18875,5416 5521,5416 Z " />
        <path fill="var(--acc-3, #ABB7A6)" stroke="none" d="M 5521,4545 L 5811,4255 19166,4255 18875,4545 5521,4545 Z " />
        <path fill="none" stroke="var(--acc-2, #CFD6CD)" stroke-width="35" stroke-linejoin="miter" d="M 5521,4545 L 5811,4255 19166,4255 18875,4545 5521,4545 Z " />
        <path fill="var(--acc-5, #48633E)" stroke="none" d="M 18875,5416 L 18875,4545 19166,4255 19166,5125 18875,5416 Z " />
        <path fill="none" stroke="var(--acc-2, #CFD6CD)" stroke-width="35" stroke-linejoin="miter" d="M 18875,5416 L 18875,4545 19166,4255 19166,5125 18875,5416 Z " />
       </g>
      </g>
      <g class="Group">
       <g class="com.sun.star.drawing.LineShape">
        <g id="id960">
         <rect class="BoundingBox" stroke="none" fill="none" x="10362" y="9234" width="215" height="873" />
         <path fill="none" stroke="var(--acc-2, #CFD6CD)" stroke-width="71" stroke-linejoin="miter" d="M 10469,9234 L 10469,9765 " />
         <path fill="var(--acc-2, #CFD6CD)" stroke="none" d="M 10469,10106 L 10363,9751 10576,9751 10469,10106 Z " />
        </g>
       </g>
       <g class="com.sun.star.drawing.LineShape">
        <g id="id961">
         <rect class="BoundingBox" stroke="none" fill="none" x="14224" y="9234" width="215" height="873" />
         <path fill="none" stroke="var(--acc-2, #CFD6CD)" stroke-width="71" stroke-linejoin="miter" d="M 14331,9234 L 14331,9765 " />
         <path fill="var(--acc-2, #CFD6CD)" stroke="none" d="M 14331,10106 L 14225,9751 14438,9751 14331,10106 Z " />
        </g>
       </g>
      </g>
      <g class="Group">
       <g class="com.sun.star.drawing.LineShape">
        <g id="id962">
         <rect class="BoundingBox" stroke="none" fill="none" x="10443" y="7338" width="215" height="882" />
         <path fill="none" stroke="var(--acc-2, #CFD6CD)" stroke-width="71" stroke-linejoin="miter" d="M 10550,7338 L 10550,7878 " />
         <path fill="var(--acc-2, #CFD6CD)" stroke="none" d="M 10550,8219 L 10444,7864 10657,7864 10550,8219 Z " />
        </g>
       </g>
       <g class="com.sun.star.drawing.LineShape">
        <g id="id963">
         <rect class="BoundingBox" stroke="none" fill="none" x="17818" y="7338" width="215" height="882" />
         <path fill="none" stroke="var(--acc-2, #CFD6CD)" stroke-width="71" stroke-linejoin="miter" d="M 17925,7338 L 17925,7878 " />
         <path fill="var(--acc-2, #CFD6CD)" stroke="none" d="M 17925,8219 L 17819,7864 18032,7864 17925,8219 Z " />
        </g>
       </g>
       <g class="com.sun.star.drawing.LineShape">
        <g id="id964">
         <rect class="BoundingBox" stroke="none" fill="none" x="14130" y="7338" width="215" height="882" />
         <path fill="none" stroke="var(--acc-2, #CFD6CD)" stroke-width="71" stroke-linejoin="miter" d="M 14237,7338 L 14237,7878 " />
         <path fill="var(--acc-2, #CFD6CD)" stroke="none" d="M 14237,8219 L 14131,7864 14344,7864 14237,8219 Z " />
        </g>
       </g>
       <g class="com.sun.star.drawing.LineShape">
        <g id="id965">
         <rect class="BoundingBox" stroke="none" fill="none" x="6755" y="7338" width="215" height="882" />
         <path fill="none" stroke="var(--acc-2, #CFD6CD)" stroke-width="71" stroke-linejoin="miter" d="M 6862,7338 L 6862,7878 " />
         <path fill="var(--acc-2, #CFD6CD)" stroke="none" d="M 6862,8219 L 6756,7864 6969,7864 6862,8219 Z " />
        </g>
       </g>
      </g>
      <g class="Group">
       <g class="com.sun.star.drawing.LineShape">
        <g id="id966">
         <rect class="BoundingBox" stroke="none" fill="none" x="6702" y="5455" width="215" height="877" />
         <path fill="none" stroke="var(--acc-2, #CFD6CD)" stroke-width="71" stroke-linejoin="miter" d="M 6809,5455 L 6809,5990 " />
         <path fill="var(--acc-2, #CFD6CD)" stroke="none" d="M 6809,6331 L 6703,5976 6916,5976 6809,6331 Z " />
        </g>
       </g>
       <g class="com.sun.star.drawing.LineShape">
        <g id="id967">
         <rect class="BoundingBox" stroke="none" fill="none" x="8921" y="5455" width="215" height="877" />
         <path fill="none" stroke="var(--acc-2, #CFD6CD)" stroke-width="71" stroke-linejoin="miter" d="M 9028,5455 L 9028,5990 " />
         <path fill="var(--acc-2, #CFD6CD)" stroke="none" d="M 9028,6331 L 8922,5976 9135,5976 9028,6331 Z " />
        </g>
       </g>
       <g class="com.sun.star.drawing.LineShape">
        <g id="id968">
         <rect class="BoundingBox" stroke="none" fill="none" x="11143" y="5455" width="215" height="877" />
         <path fill="none" stroke="var(--acc-2, #CFD6CD)" stroke-width="71" stroke-linejoin="miter" d="M 11250,5455 L 11250,5990 " />
         <path fill="var(--acc-2, #CFD6CD)" stroke="none" d="M 11250,6331 L 11144,5976 11357,5976 11250,6331 Z " />
        </g>
       </g>
       <g class="com.sun.star.drawing.LineShape">
        <g id="id969">
         <rect class="BoundingBox" stroke="none" fill="none" x="13369" y="5455" width="215" height="877" />
         <path fill="none" stroke="var(--acc-2, #CFD6CD)" stroke-width="71" stroke-linejoin="miter" d="M 13476,5455 L 13476,5990 " />
         <path fill="var(--acc-2, #CFD6CD)" stroke="none" d="M 13476,6331 L 13370,5976 13583,5976 13476,6331 Z " />
        </g>
       </g>
       <g class="com.sun.star.drawing.LineShape">
        <g id="id970">
         <rect class="BoundingBox" stroke="none" fill="none" x="15590" y="5455" width="215" height="877" />
         <path fill="none" stroke="var(--acc-2, #CFD6CD)" stroke-width="71" stroke-linejoin="miter" d="M 15697,5455 L 15697,5990 " />
         <path fill="var(--acc-2, #CFD6CD)" stroke="none" d="M 15697,6331 L 15591,5976 15804,5976 15697,6331 Z " />
        </g>
       </g>
       <g class="com.sun.star.drawing.LineShape">
        <g id="id971">
         <rect class="BoundingBox" stroke="none" fill="none" x="17818" y="5455" width="215" height="877" />
         <path fill="none" stroke="var(--acc-2, #CFD6CD)" stroke-width="71" stroke-linejoin="miter" d="M 17925,5455 L 17925,5990 " />
         <path fill="var(--acc-2, #CFD6CD)" stroke="none" d="M 17925,6331 L 17819,5976 18032,5976 17925,6331 Z " />
        </g>
       </g>
      </g>
      <g class="com.sun.star.drawing.LineShape">
       <g id="id972">
        <rect class="BoundingBox" stroke="none" fill="none" x="12377" y="11121" width="215" height="874" />
        <path fill="none" stroke="var(--acc-2, #CFD6CD)" stroke-width="71" stroke-linejoin="miter" d="M 12484,11121 L 12484,11653 " />
        <path fill="var(--acc-2, #CFD6CD)" stroke="none" d="M 12484,11994 L 12378,11639 12591,11639 12484,11994 Z " />
       </g>
      </g>
      <g class="Group">
       <g class="com.sun.star.drawing.LineShape">
        <g id="id973">
         <rect class="BoundingBox" stroke="none" fill="none" x="6596" y="3175" width="215" height="1327" />
         <path fill="none" stroke="var(--acc-2, #CFD6CD)" stroke-width="71" stroke-linejoin="miter" d="M 6703,3175 L 6703,4160 " />
         <path fill="var(--acc-2, #CFD6CD)" stroke="none" d="M 6703,4501 L 6597,4146 6810,4146 6703,4501 Z " />
        </g>
       </g>
       <g class="com.sun.star.drawing.LineShape">
        <g id="id974">
         <rect class="BoundingBox" stroke="none" fill="none" x="7229" y="3175" width="215" height="1327" />
         <path fill="none" stroke="var(--acc-2, #CFD6CD)" stroke-width="71" stroke-linejoin="miter" d="M 7336,3175 L 7336,4160 " />
         <path fill="var(--acc-2, #CFD6CD)" stroke="none" d="M 7336,4501 L 7230,4146 7443,4146 7336,4501 Z " />
        </g>
       </g>
       <g class="com.sun.star.drawing.LineShape">
        <g id="id975">
         <rect class="BoundingBox" stroke="none" fill="none" x="7863" y="3175" width="215" height="1327" />
         <path fill="none" stroke="var(--acc-2, #CFD6CD)" stroke-width="71" stroke-linejoin="miter" d="M 7970,3175 L 7970,4160 " />
         <path fill="var(--acc-2, #CFD6CD)" stroke="none" d="M 7970,4501 L 7864,4146 8077,4146 7970,4501 Z " />
        </g>
       </g>
       <g class="com.sun.star.drawing.LineShape">
        <g id="id976">
         <rect class="BoundingBox" stroke="none" fill="none" x="8502" y="3175" width="215" height="1327" />
         <path fill="none" stroke="var(--acc-2, #CFD6CD)" stroke-width="71" stroke-linejoin="miter" d="M 8609,3175 L 8609,4160 " />
         <path fill="var(--acc-2, #CFD6CD)" stroke="none" d="M 8609,4501 L 8503,4146 8716,4146 8609,4501 Z " />
        </g>
       </g>
       <g class="com.sun.star.drawing.LineShape">
        <g id="id977">
         <rect class="BoundingBox" stroke="none" fill="none" x="9136" y="3175" width="215" height="1327" />
         <path fill="none" stroke="var(--acc-2, #CFD6CD)" stroke-width="71" stroke-linejoin="miter" d="M 9243,3175 L 9243,4160 " />
         <path fill="var(--acc-2, #CFD6CD)" stroke="none" d="M 9243,4501 L 9137,4146 9350,4146 9243,4501 Z " />
        </g>
       </g>
       <g class="com.sun.star.drawing.LineShape">
        <g id="id978">
         <rect class="BoundingBox" stroke="none" fill="none" x="9777" y="3175" width="215" height="1327" />
         <path fill="none" stroke="var(--acc-2, #CFD6CD)" stroke-width="71" stroke-linejoin="miter" d="M 9884,3175 L 9884,4160 " />
         <path fill="var(--acc-2, #CFD6CD)" stroke="none" d="M 9884,4501 L 9778,4146 9991,4146 9884,4501 Z " />
        </g>
       </g>
       <g class="com.sun.star.drawing.LineShape">
        <g id="id979">
         <rect class="BoundingBox" stroke="none" fill="none" x="11050" y="3175" width="215" height="1327" />
         <path fill="none" stroke="var(--acc-2, #CFD6CD)" stroke-width="71" stroke-linejoin="miter" d="M 11157,3175 L 11157,4160 " />
         <path fill="var(--acc-2, #CFD6CD)" stroke="none" d="M 11157,4501 L 11051,4146 11264,4146 11157,4501 Z " />
        </g>
       </g>
       <g class="com.sun.star.drawing.LineShape">
        <g id="id980">
         <rect class="BoundingBox" stroke="none" fill="none" x="10409" y="3175" width="215" height="1327" />
         <path fill="none" stroke="var(--acc-2, #CFD6CD)" stroke-width="71" stroke-linejoin="miter" d="M 10516,3175 L 10516,4160 " />
         <path fill="var(--acc-2, #CFD6CD)" stroke="none" d="M 10516,4501 L 10410,4146 10623,4146 10516,4501 Z " />
        </g>
       </g>
       <g class="com.sun.star.drawing.LineShape">
        <g id="id981">
         <rect class="BoundingBox" stroke="none" fill="none" x="11683" y="3175" width="215" height="1327" />
         <path fill="none" stroke="var(--acc-2, #CFD6CD)" stroke-width="71" stroke-linejoin="miter" d="M 11790,3175 L 11790,4160 " />
         <path fill="var(--acc-2, #CFD6CD)" stroke="none" d="M 11790,4501 L 11684,4146 11897,4146 11790,4501 Z " />
        </g>
       </g>
       <g class="com.sun.star.drawing.LineShape">
        <g id="id982">
         <rect class="BoundingBox" stroke="none" fill="none" x="12317" y="3175" width="215" height="1327" />
         <path fill="none" stroke="var(--acc-2, #CFD6CD)" stroke-width="71" stroke-linejoin="miter" d="M 12424,3175 L 12424,4160 " />
         <path fill="var(--acc-2, #CFD6CD)" stroke="none" d="M 12424,4501 L 12318,4146 12531,4146 12424,4501 Z " />
        </g>
       </g>
       <g class="com.sun.star.drawing.LineShape">
        <g id="id983">
         <rect class="BoundingBox" stroke="none" fill="none" x="12956" y="3175" width="215" height="1327" />
         <path fill="none" stroke="var(--acc-2, #CFD6CD)" stroke-width="71" stroke-linejoin="miter" d="M 13063,3175 L 13063,4160 " />
         <path fill="var(--acc-2, #CFD6CD)" stroke="none" d="M 13063,4501 L 12957,4146 13170,4146 13063,4501 Z " />
        </g>
       </g>
       <g class="com.sun.star.drawing.LineShape">
        <g id="id984">
         <rect class="BoundingBox" stroke="none" fill="none" x="13590" y="3175" width="215" height="1327" />
         <path fill="none" stroke="var(--acc-2, #CFD6CD)" stroke-width="71" stroke-linejoin="miter" d="M 13697,3175 L 13697,4160 " />
         <path fill="var(--acc-2, #CFD6CD)" stroke="none" d="M 13697,4501 L 13591,4146 13804,4146 13697,4501 Z " />
        </g>
       </g>
       <g class="com.sun.star.drawing.LineShape">
        <g id="id985">
         <rect class="BoundingBox" stroke="none" fill="none" x="14229" y="3175" width="215" height="1327" />
         <path fill="none" stroke="var(--acc-2, #CFD6CD)" stroke-width="71" stroke-linejoin="miter" d="M 14336,3175 L 14336,4160 " />
         <path fill="var(--acc-2, #CFD6CD)" stroke="none" d="M 14336,4501 L 14230,4146 14443,4146 14336,4501 Z " />
        </g>
       </g>
       <g class="com.sun.star.drawing.LineShape">
        <g id="id986">
         <rect class="BoundingBox" stroke="none" fill="none" x="14863" y="3175" width="215" height="1327" />
         <path fill="none" stroke="var(--acc-2, #CFD6CD)" stroke-width="71" stroke-linejoin="miter" d="M 14970,3175 L 14970,4160 " />
         <path fill="var(--acc-2, #CFD6CD)" stroke="none" d="M 14970,4501 L 14864,4146 15077,4146 14970,4501 Z " />
        </g>
       </g>
       <g class="com.sun.star.drawing.LineShape">
        <g id="id987">
         <rect class="BoundingBox" stroke="none" fill="none" x="15502" y="3175" width="215" height="1327" />
         <path fill="none" stroke="var(--acc-2, #CFD6CD)" stroke-width="71" stroke-linejoin="miter" d="M 15609,3175 L 15609,4160 " />
         <path fill="var(--acc-2, #CFD6CD)" stroke="none" d="M 15609,4501 L 15503,4146 15716,4146 15609,4501 Z " />
        </g>
       </g>
       <g class="Group">
        <g class="com.sun.star.drawing.LineShape">
         <g id="id988">
          <rect class="BoundingBox" stroke="none" fill="none" x="16136" y="3175" width="215" height="1326" />
          <path fill="none" stroke="var(--acc-2, #CFD6CD)" stroke-width="71" stroke-linejoin="miter" d="M 16243,3175 L 16243,4159 " />
          <path fill="var(--acc-2, #CFD6CD)" stroke="none" d="M 16243,4500 L 16137,4145 16350,4145 16243,4500 Z " />
         </g>
        </g>
        <g class="com.sun.star.drawing.LineShape">
         <g id="id989">
          <rect class="BoundingBox" stroke="none" fill="none" x="16709" y="3175" width="215" height="1326" />
          <path fill="none" stroke="var(--acc-2, #CFD6CD)" stroke-width="71" stroke-linejoin="miter" d="M 16816,3175 L 16816,4159 " />
          <path fill="var(--acc-2, #CFD6CD)" stroke="none" d="M 16816,4500 L 16710,4145 16923,4145 16816,4500 Z " />
         </g>
        </g>
       </g>
       <g class="Group">
        <g class="com.sun.star.drawing.LineShape">
         <g id="id990">
          <rect class="BoundingBox" stroke="none" fill="none" x="17350" y="3175" width="215" height="1326" />
          <path fill="none" stroke="var(--acc-2, #CFD6CD)" stroke-width="71" stroke-linejoin="miter" d="M 17457,3175 L 17457,4159 " />
          <path fill="var(--acc-2, #CFD6CD)" stroke="none" d="M 17457,4500 L 17351,4145 17564,4145 17457,4500 Z " />
         </g>
        </g>
        <g class="com.sun.star.drawing.LineShape">
         <g id="id991">
          <rect class="BoundingBox" stroke="none" fill="none" x="17922" y="3175" width="215" height="1326" />
          <path fill="none" stroke="var(--acc-2, #CFD6CD)" stroke-width="71" stroke-linejoin="miter" d="M 18029,3175 L 18029,4159 " />
          <path fill="var(--acc-2, #CFD6CD)" stroke="none" d="M 18029,4500 L 17923,4145 18136,4145 18029,4500 Z " />
         </g>
        </g>
       </g>
      </g>
      </svg>