<?xml version='1.0' encoding='utf-8'?>
<svg xmlns="http://www.w3.org/2000/svg" viewBox="6014.80 2685.80 13073.40 12739.40" shape-rendering="geometricPrecision" width="1024" height="997.84" preserveAspectRatio="xMidYMid meet"><g class="Group">
       <g class="com.sun.star.drawing.CustomShape">
        <g id="id1442">
         <rect class="BoundingBox" stroke="none" fill="none" x="13417" y="4457" width="4821" height="5142" />
         <path fill="var(--acc-4, #889A82)" stroke="none" d="M 18118,7907 L 18107,7355 18107,6797 18130,6240 18163,5687 18219,5130 17890,5871 17515,5649 17141,5449 16756,5265 16371,5108 15980,4956 15584,4826 15182,4718 14780,4632 14372,4556 13959,4502 13552,4475 13959,6045 13435,7696 13775,7701 14116,7723 14451,7756 14774,7793 15087,7842 15394,7907 15690,7977 15980,8064 16254,8156 16522,8264 16767,8373 17002,8497 17220,8633 17421,8768 17605,8914 17616,9136 17616,9358 17605,9580 17761,9163 17895,8752 18012,8329 18118,7907 Z " />
         <path fill="none" stroke="var(--on-acc, #F0F0FA)" stroke-width="35" stroke-linejoin="round" stroke-linecap="round" d="M 18118,7907 L 18107,7355 18107,6797 18130,6240 18163,5687 18219,5130 17890,5871 17515,5649 17141,5449 16756,5265 16371,5108 15980,4956 15584,4826 15182,4718 14780,4632 14372,4556 13959,4502 13552,4475 13959,6045 13435,7696 13775,7701 14116,7723 14451,7756 14774,7793 15087,7842 15394,7907 15690,7977 15980,8064 16254,8156 16522,8264 16767,8373 17002,8497 17220,8633 17421,8768 17605,8914 17616,9136 17616,9358 17605,9580 17761,9163 17895,8752 18012,8329 18118,7907 Z " />
        </g>
       </g>
       <g class="com.sun.star.drawing.CustomShape">
        <g id="id1443">
         <rect class="BoundingBox" stroke="none" fill="none" x="8456" y="9285" width="6797" height="5385" />
         <path fill="var(--acc-4, #889A82)" stroke="none" d="M 8474,12028 L 9043,14651 9160,13806 9490,13914 9908,14039 10321,14142 10740,14228 11159,14304 11572,14358 11990,14391 12398,14402 12817,14396 13230,14380 13632,14337 14039,14272 14441,14196 14838,14093 15234,13979 14341,12695 14798,10831 14681,10869 14547,10907 14402,10939 14240,10972 14062,10999 13866,11026 13660,11037 13448,11053 13230,11064 12995,11075 12761,11075 12526,11075 12281,11064 12041,11053 11806,11037 11566,11020 11337,10999 11120,10972 10902,10939 10695,10901 10500,10869 10321,10825 10159,10782 10009,10733 9880,10690 10003,9303 8474,12028 Z " />
         <path fill="none" stroke="var(--on-acc, #F0F0FA)" stroke-width="35" stroke-linejoin="round" stroke-linecap="round" d="M 8474,12028 L 9043,14651 9160,13806 9490,13914 9908,14039 10321,14142 10740,14228 11159,14304 11572,14358 11990,14391 12398,14402 12817,14396 13230,14380 13632,14337 14039,14272 14441,14196 14838,14093 15234,13979 14341,12695 14798,10831 14681,10869 14547,10907 14402,10939 14240,10972 14062,10999 13866,11026 13660,11037 13448,11053 13230,11064 12995,11075 12761,11075 12526,11075 12281,11064 12041,11053 11806,11037 11566,11020 11337,10999 11120,10972 10902,10939 10695,10901 10500,10869 10321,10825 10159,10782 10009,10733 9880,10690 10003,9303 8474,12028 Z " />
        </g>
       </g>
       <g class="com.sun.star.drawing.CustomShape">
        <g id="id1444">
         <rect class="BoundingBox" stroke="none" fill="none" x="8188" y="3152" width="5514" height="5535" />
         <path fill="var(--acc-4, #889A82)" stroke="none" d="M 13683,6019 L 13024,3170 13024,4399 12583,4410 12164,4426 11751,4459 11349,4497 10969,4546 10601,4605 10249,4676 9908,4757 9585,4843 9272,4941 8982,5049 8708,5163 8446,5293 8206,5434 8931,6837 8809,8376 8954,8300 9160,8218 9378,8143 9607,8067 9841,8002 10093,7937 10344,7877 10606,7823 10863,7785 11131,7742 11394,7709 11656,7682 11913,7671 12170,7660 12410,7655 12656,7660 12884,7671 12918,8668 13683,6019 Z " />
         <path fill="none" stroke="var(--on-acc, #F0F0FA)" stroke-width="35" stroke-linejoin="round" stroke-linecap="round" d="M 13683,6019 L 13024,3170 13024,4399 12583,4410 12164,4426 11751,4459 11349,4497 10969,4546 10601,4605 10249,4676 9908,4757 9585,4843 9272,4941 8982,5049 8708,5163 8446,5293 8206,5434 8931,6837 8809,8376 8954,8300 9160,8218 9378,8143 9607,8067 9841,8002 10093,7937 10344,7877 10606,7823 10863,7785 11131,7742 11394,7709 11656,7682 11913,7671 12170,7660 12410,7655 12656,7660 12884,7671 12918,8668 13683,6019 Z " />
        </g>
       </g>
       <g class="Group">
        <g class="com.sun.star.drawing.CustomShape">
         <g id="id1445">
          <rect class="BoundingBox" stroke="none" fill="none" x="6481" y="4576" width="2223" height="4839" />
          <path fill="var(--acc-4, #889A82)" stroke="none" d="M 8685,7046 L 7647,4594 7647,5725 7452,5871 7274,6034 7118,6202 6973,6380 6850,6559 6738,6748 6655,6949 6582,7149 6538,7355 6510,7555 6499,7745 6515,7978 6549,8183 6604,8389 6683,8600 6772,8801 6872,8958 6984,9109 7106,9255 7240,9396 7396,9250 7564,9109 7737,8974 7915,8849 8094,8736 8278,8633 8462,8535 8562,9255 8685,7046 Z " />
          <path fill="none" stroke="var(--on-acc, #F0F0FA)" stroke-width="35" stroke-linejoin="round" stroke-linecap="round" d="M 8685,7046 L 7647,4594 7647,5725 7452,5871 7274,6034 7118,6202 6973,6380 6850,6559 6738,6748 6655,6949 6582,7149 6538,7355 6510,7555 6499,7745 6515,7978 6549,8183 6604,8389 6683,8600 6772,8801 6872,8958 6984,9109 7106,9255 7240,9396 7396,9250 7564,9109 7737,8974 7915,8849 8094,8736 8278,8633 8462,8535 8562,9255 8685,7046 Z " />
         </g>
        </g>
        <g class="com.sun.star.drawing.CustomShape">
         <g id="id1446">
          <rect class="BoundingBox" stroke="none" fill="none" x="6481" y="7775" width="2619" height="5787" />
          <path fill="var(--acc-4, #889A82)" stroke="none" d="M 6499,7793 L 6499,10955 6515,11117 6538,11280 6582,11453 6638,11626 6705,11805 6789,11978 6883,12157 6995,12325 7112,12493 7235,12650 7374,12801 7519,12947 7664,13077 7815,13191 7971,13289 8122,13381 8272,13451 8423,13505 8573,13543 8205,11962 9081,10516 8908,10451 8702,10370 8501,10273 8306,10175 8116,10078 7943,9964 7776,9861 7625,9742 7486,9634 7363,9525 7257,9417 7168,9303 7028,9141 6906,8968 6805,8789 6710,8599 6638,8404 6577,8204 6532,7998 6499,7793 Z " />
          <path fill="none" stroke="var(--on-acc, #F0F0FA)" stroke-width="35" stroke-linejoin="round" stroke-linecap="round" d="M 6499,7793 L 6499,10955 6515,11117 6538,11280 6582,11453 6638,11626 6705,11805 6789,11978 6883,12157 6995,12325 7112,12493 7235,12650 7374,12801 7519,12947 7664,13077 7815,13191 7971,13289 8122,13381 8272,13451 8423,13505 8573,13543 8205,11962 9081,10516 8908,10451 8702,10370 8501,10273 8306,10175 8116,10078 7943,9964 7776,9861 7625,9742 7486,9634 7363,9525 7257,9417 7168,9303 7028,9141 6906,8968 6805,8789 6710,8599 6638,8404 6577,8204 6532,7998 6499,7793 Z " />
         </g>
        </g>
       </g>
       <g class="Group">
        <g class="com.sun.star.drawing.CustomShape">
         <g id="id1447">
          <rect class="BoundingBox" stroke="none" fill="none" x="17621" y="6145" width="1002" height="3493" />
          <path fill="var(--acc-4, #889A82)" stroke="none" d="M 17639,9614 L 17756,9597 17862,9565 17962,9505 18063,9435 18152,9343 18236,9234 18314,9110 18386,8964 18448,8812 18492,8644 18537,8465 18570,8275 18593,8075 18604,7869 18604,7658 18593,7441 18570,7224 18543,7008 18498,6791 18453,6574 18392,6368 18325,6163 18353,6531 18370,6894 18375,7262 18370,7625 18347,7988 18330,8162 18308,8335 18280,8508 18247,8671 18202,8828 18157,8980 18107,9115 18051,9245 17996,9348 17934,9446 17878,9516 17817,9570 17761,9603 17700,9619 17639,9614 Z " />
          <path fill="none" stroke="var(--on-acc, #F0F0FA)" stroke-width="35" stroke-linejoin="round" stroke-linecap="round" d="M 17639,9614 L 17756,9597 17862,9565 17962,9505 18063,9435 18152,9343 18236,9234 18314,9110 18386,8964 18448,8812 18492,8644 18537,8465 18570,8275 18593,8075 18604,7869 18604,7658 18593,7441 18570,7224 18543,7008 18498,6791 18453,6574 18392,6368 18325,6163 18353,6531 18370,6894 18375,7262 18370,7625 18347,7988 18330,8162 18308,8335 18280,8508 18247,8671 18202,8828 18157,8980 18107,9115 18051,9245 17996,9348 17934,9446 17878,9516 17817,9570 17761,9603 17700,9619 17639,9614 Z " />
         </g>
        </g>
        <g class="com.sun.star.drawing.CustomShape">
         <g id="id1448">
          <rect class="BoundingBox" stroke="none" fill="none" x="14595" y="7917" width="4023" height="7043" />
          <path fill="var(--acc-4, #889A82)" stroke="none" d="M 14613,12662 L 16159,14941 15874,13782 16114,13674 16382,13555 16639,13425 16890,13284 17119,13143 17343,12992 17549,12835 17745,12667 17918,12499 18074,12331 18214,12158 18337,11979 18448,11795 18532,11616 18599,11432 18599,7935 18582,8070 18543,8216 18487,8368 18426,8525 18337,8682 18236,8844 18119,9012 17990,9169 17851,9331 17700,9489 17538,9640 17371,9786 17192,9922 17013,10057 16823,10171 16634,10279 16449,10377 16260,10463 16075,10534 15897,10588 15718,10631 15556,10658 15333,9304 14613,12662 Z " />
          <path fill="none" stroke="var(--on-acc, #F0F0FA)" stroke-width="35" stroke-linejoin="round" stroke-linecap="round" d="M 14613,12662 L 16159,14941 15874,13782 16114,13674 16382,13555 16639,13425 16890,13284 17119,13143 17343,12992 17549,12835 17745,12667 17918,12499 18074,12331 18214,12158 18337,11979 18448,11795 18532,11616 18599,11432 18599,7935 18582,8070 18543,8216 18487,8368 18426,8525 18337,8682 18236,8844 18119,9012 17990,9169 17851,9331 17700,9489 17538,9640 17371,9786 17192,9922 17013,10057 16823,10171 16634,10279 16449,10377 16260,10463 16075,10534 15897,10588 15718,10631 15556,10658 15333,9304 14613,12662 Z " />
         </g>
        </g>
       </g>
      </g>
      </svg>