<?xml version='1.0' encoding='utf-8'?>
<svg xmlns="http://www.w3.org/2000/svg" viewBox="4549.04 3165.04 14659.92 13917.92" shape-rendering="geometricPrecision" width="1024" height="972.17" preserveAspectRatio="xMidYMid meet"><g class="com.sun.star.drawing.CustomShape">
       <g id="id2059">
        <rect class="BoundingBox" stroke="none" fill="none" x="5119" y="10190" width="13566" height="5239" />
        <path fill="var(--acc-4, #889A82)" stroke="none" d="M 5137,10502 L 5526,10208 18455,10376 18666,10544 11923,15410 5137,10502 Z " />
        <path fill="none" stroke="var(--on-acc, #F0F0FA)" stroke-width="35" stroke-linejoin="round" stroke-linecap="round" d="M 5137,10502 L 5526,10208 18455,10376 18666,10544 11923,15410 5137,10502 Z " />
       </g>
      </g>
      <g class="com.sun.star.drawing.CustomShape">
       <g id="id2060">
        <rect class="BoundingBox" stroke="none" fill="none" x="5128" y="10499" width="6814" height="6060" />
        <path fill="var(--acc-3, #ABB7A6)" stroke="none" d="M 11923,15412 L 11923,16540 5146,11450 5146,10517 11923,15412 Z " />
        <path fill="none" stroke="var(--on-acc, #F0F0FA)" stroke-width="35" stroke-linejoin="round" stroke-linecap="round" d="M 11923,15412 L 11923,16540 5146,11450 5146,10517 11923,15412 Z " />
       </g>
      </g>
      <g class="com.sun.star.drawing.CustomShape">
       <g id="id2061">
        <rect class="BoundingBox" stroke="none" fill="none" x="5075" y="9013" width="13610" height="4984" />
        <path fill="var(--acc-4, #889A82)" stroke="none" d="M 5093,9240 L 5395,9031 18412,9156 18666,9324 11923,13978 5093,9240 Z " />
        <path fill="none" stroke="var(--on-acc, #F0F0FA)" stroke-width="35" stroke-linejoin="round" stroke-linecap="round" d="M 5093,9240 L 5395,9031 18412,9156 18666,9324 11923,13978 5093,9240 Z " />
       </g>
      </g>
      <g class="com.sun.star.drawing.CustomShape">
       <g id="id2062">
        <rect class="BoundingBox" stroke="none" fill="none" x="5119" y="8090" width="3454" height="3269" />
        <path fill="var(--lime, #B8FF00)" stroke="none" d="M 5137,8108 L 5137,8989 8554,11340 8554,10333 5137,8108 Z " />
        <path fill="none" stroke="var(--on-acc, #F0F0FA)" stroke-width="35" stroke-linejoin="round" stroke-linecap="round" d="M 5137,8108 L 5137,8989 8554,11340 8554,10333 5137,8108 Z " />
       </g>
      </g>
      <g class="com.sun.star.drawing.CustomShape">
       <g id="id2063">
        <rect class="BoundingBox" stroke="none" fill="none" x="11901" y="10301" width="3366" height="3392" />
        <path fill="var(--lime, #B8FF00)" stroke="none" d="M 11919,12503 L 11919,13674 15248,11369 15248,10319 11919,12503 Z " />
        <path fill="none" stroke="var(--on-acc, #F0F0FA)" stroke-width="35" stroke-linejoin="round" stroke-linecap="round" d="M 11919,12503 L 11919,13674 15248,11369 15248,10319 11919,12503 Z " />
       </g>
      </g>
      <g class="com.sun.star.drawing.CustomShape">
       <g id="id2064">
        <rect class="BoundingBox" stroke="none" fill="none" x="15231" y="8090" width="3454" height="3309" />
        <path fill="var(--lime, #B8FF00)" stroke="none" d="M 15249,10331 L 15249,11380 18666,8989 18666,8108 15249,10331 Z " />
        <path fill="none" stroke="var(--on-acc, #F0F0FA)" stroke-width="35" stroke-linejoin="round" stroke-linecap="round" d="M 15249,10331 L 15249,11380 18666,8989 18666,8108 15249,10331 Z " />
       </g>
      </g>
      <g class="com.sun.star.drawing.CustomShape">
       <g id="id2065">
        <rect class="BoundingBox" stroke="none" fill="none" x="8532" y="10314" width="3410" height="3392" />
        <path fill="var(--lime, #B8FF00)" stroke="none" d="M 8550,10332 L 8550,11340 11923,13687 11923,12516 8550,10332 Z " />
        <path fill="none" stroke="var(--on-acc, #F0F0FA)" stroke-width="35" stroke-linejoin="round" stroke-linecap="round" d="M 8550,10332 L 8550,11340 11923,13687 11923,12516 8550,10332 Z " />
       </g>
      </g>
      <g class="com.sun.star.drawing.CustomShape">
       <g id="id2066">
        <rect class="BoundingBox" stroke="none" fill="none" x="11901" y="10525" width="6784" height="6033" />
        <path fill="var(--acc-5, #48633E)" stroke="none" d="M 18666,10543 L 18666,11466 11919,16539 11919,15406 18666,10543 Z " />
        <path fill="none" stroke="var(--on-acc, #F0F0FA)" stroke-width="35" stroke-linejoin="round" stroke-linecap="round" d="M 18666,10543 L 18666,11466 11919,16539 11919,15406 18666,10543 Z " />
       </g>
      </g>
      <g class="com.sun.star.drawing.CustomShape">
       <g id="id2067">
        <rect class="BoundingBox" stroke="none" fill="none" x="11901" y="9309" width="6784" height="5826" />
        <path fill="var(--acc-3, #ABB7A6)" stroke="none" d="M 18666,9327 L 18666,10250 11919,15116 11919,13982 18666,9327 Z " />
        <path fill="none" stroke="var(--on-acc, #F0F0FA)" stroke-width="35" stroke-linejoin="round" stroke-linecap="round" d="M 18666,9327 L 18666,10250 11919,15116 11919,13982 18666,9327 Z " />
       </g>
      </g>
      <g class="com.sun.star.drawing.CustomShape">
       <g id="id2068">
        <rect class="BoundingBox" stroke="none" fill="none" x="5074" y="9225" width="6867" height="5910" />
        <path fill="var(--acc-3, #ABB7A6)" stroke="none" d="M 11922,13982 L 11922,15116 5092,10250 5092,9243 11922,13982 Z " />
        <path fill="none" stroke="var(--on-acc, #F0F0FA)" stroke-width="35" stroke-linejoin="round" stroke-linecap="round" d="M 11922,13982 L 11922,15116 5092,10250 5092,9243 11922,13982 Z " />
       </g>
      </g>
      <g class="com.sun.star.drawing.CustomShape">
       <g id="id2069">
        <rect class="BoundingBox" stroke="none" fill="none" x="8532" y="3690" width="6784" height="4441" />
        <path fill="var(--acc-5, #48633E)" stroke="none" d="M 8550,5934 L 11921,3708 15297,5934 11921,8112 8550,5934 Z " />
        <path fill="none" stroke="var(--on-acc, #F0F0FA)" stroke-width="35" stroke-linejoin="round" stroke-linecap="round" d="M 8550,5934 L 11921,3708 15297,5934 11921,8112 8550,5934 Z " />
       </g>
      </g>
      <g class="com.sun.star.drawing.CustomShape">
       <g id="id2070">
        <rect class="BoundingBox" stroke="none" fill="none" x="11901" y="5916" width="6784" height="4433" />
        <path fill="var(--acc-5, #48633E)" stroke="none" d="M 11919,8108 L 15295,5934 18666,8108 15295,10330 11919,8108 Z " />
        <path fill="none" stroke="var(--on-acc, #F0F0FA)" stroke-width="35" stroke-linejoin="round" stroke-linecap="round" d="M 11919,8108 L 15295,5934 18666,8108 15295,10330 11919,8108 Z " />
       </g>
      </g>
      <g class="com.sun.star.drawing.CustomShape">
       <g id="id2071">
        <rect class="BoundingBox" stroke="none" fill="none" x="5118" y="5916" width="6823" height="4433" />
        <path fill="var(--acc-5, #48633E)" stroke="none" d="M 5136,8108 L 8553,5934 11922,8108 8553,10330 5136,8108 Z " />
        <path fill="none" stroke="var(--on-acc, #F0F0FA)" stroke-width="35" stroke-linejoin="round" stroke-linecap="round" d="M 5136,8108 L 8553,5934 11922,8108 8553,10330 5136,8108 Z " />
       </g>
      </g>
      <g class="com.sun.star.drawing.CustomShape">
       <g id="id2072">
        <rect class="BoundingBox" stroke="none" fill="none" x="8532" y="8090" width="6784" height="4447" />
        <path fill="var(--acc-5, #48633E)" stroke="none" d="M 8550,10334 L 11921,8108 15297,10334 11921,12518 8550,10334 Z " />
        <path fill="none" stroke="var(--on-acc, #F0F0FA)" stroke-width="35" stroke-linejoin="round" stroke-linecap="round" d="M 8550,10334 L 11921,8108 15297,10334 11921,12518 8550,10334 Z " />
       </g>
      </g>
      </svg>