<?xml version='1.0' encoding='utf-8'?>
<svg xmlns="http://www.w3.org/2000/svg" viewBox="-590.00 2805.00 26028.00 12954.00" shape-rendering="geometricPrecision" width="1024" height="509.64" preserveAspectRatio="xMidYMid meet"><g class="com.sun.star.drawing.CustomShape">
       <g id="id2184">
        <rect class="BoundingBox" stroke="none" fill="none" x="6675" y="4608" width="1818" height="10197" />
        <path fill="var(--acc-5, #48633E)" stroke="none" d="M 7584,14786 L 6693,14786 6693,4626 8474,4626 8474,14786 7584,14786 Z " />
        <path fill="none" stroke="var(--on-acc, #F0F0FA)" stroke-width="35" stroke-linejoin="miter" d="M 7584,14786 L 6693,14786 6693,4626 8474,4626 8474,14786 7584,14786 Z " />
       </g>
      </g>
      <g class="com.sun.star.drawing.CustomShape">
       <g id="id2185">
        <rect class="BoundingBox" stroke="none" fill="none" x="8457" y="4608" width="1819" height="10197" />
        <path fill="var(--acc-5, #48633E)" stroke="none" d="M 9366,14786 L 8475,14786 8475,4626 10257,4626 10257,14786 9366,14786 Z " />
        <path fill="none" stroke="var(--on-acc, #F0F0FA)" stroke-width="35" stroke-linejoin="miter" d="M 9366,14786 L 8475,14786 8475,4626 10257,4626 10257,14786 9366,14786 Z " />
       </g>
      </g>
      <g class="com.sun.star.drawing.CustomShape">
       <g id="id2186">
        <rect class="BoundingBox" stroke="none" fill="none" x="10238" y="4608" width="1814" height="10197" />
        <path fill="var(--acc-5, #48633E)" stroke="none" d="M 11145,14786 L 10256,14786 10256,4626 12033,4626 12033,14786 11145,14786 Z " />
        <path fill="none" stroke="var(--on-acc, #F0F0FA)" stroke-width="35" stroke-linejoin="miter" d="M 11145,14786 L 10256,14786 10256,4626 12033,4626 12033,14786 11145,14786 Z " />
       </g>
      </g>
      <g class="com.sun.star.drawing.CustomShape">
       <g id="id2187">
        <rect class="BoundingBox" stroke="none" fill="none" x="12016" y="4608" width="1819" height="10197" />
        <path fill="var(--acc-5, #48633E)" stroke="none" d="M 12925,14786 L 12034,14786 12034,4626 13816,4626 13816,14786 12925,14786 Z " />
        <path fill="none" stroke="var(--on-acc, #F0F0FA)" stroke-width="35" stroke-linejoin="miter" d="M 12925,14786 L 12034,14786 12034,4626 13816,4626 13816,14786 12925,14786 Z " />
       </g>
      </g>
      <g class="com.sun.star.drawing.CustomShape">
       <g id="id2188">
        <rect class="BoundingBox" stroke="none" fill="none" x="13798" y="4608" width="1823" height="10197" />
        <path fill="var(--acc-5, #48633E)" stroke="none" d="M 14709,14786 L 13816,14786 13816,4626 15602,4626 15602,14786 14709,14786 Z " />
        <path fill="none" stroke="var(--on-acc, #F0F0FA)" stroke-width="35" stroke-linejoin="miter" d="M 14709,14786 L 13816,14786 13816,4626 15602,4626 15602,14786 14709,14786 Z " />
       </g>
      </g>
      <g class="com.sun.star.drawing.CustomShape">
       <g id="id2189">
        <rect class="BoundingBox" stroke="none" fill="none" x="15552" y="4608" width="1814" height="10197" />
        <path fill="var(--acc-5, #48633E)" stroke="none" d="M 16459,14786 L 15570,14786 15570,4626 17347,4626 17347,14786 16459,14786 Z " />
        <path fill="none" stroke="var(--on-acc, #F0F0FA)" stroke-width="35" stroke-linejoin="miter" d="M 16459,14786 L 15570,14786 15570,4626 17347,4626 17347,14786 16459,14786 Z " />
       </g>
      </g>
      <g class="com.sun.star.drawing.CustomShape">
       <g id="id2190">
        <rect class="BoundingBox" stroke="none" fill="none" x="17329" y="4608" width="1818" height="10197" />
        <path fill="var(--acc-5, #48633E)" stroke="none" d="M 18238,14786 L 17347,14786 17347,4626 19128,4626 19128,14786 18238,14786 Z " />
        <path fill="none" stroke="var(--on-acc, #F0F0FA)" stroke-width="35" stroke-linejoin="miter" d="M 18238,14786 L 17347,14786 17347,4626 19128,4626 19128,14786 18238,14786 Z " />
       </g>
      </g>
      <g class="com.sun.star.drawing.CustomShape">
       <g id="id2191">
        <rect class="BoundingBox" stroke="none" fill="none" x="19111" y="4608" width="1823" height="10197" />
        <path fill="var(--acc-5, #48633E)" stroke="none" d="M 20022,14786 L 19129,14786 19129,4626 20915,4626 20915,14786 20022,14786 Z " />
        <path fill="none" stroke="var(--on-acc, #F0F0FA)" stroke-width="35" stroke-linejoin="miter" d="M 20022,14786 L 19129,14786 19129,4626 20915,4626 20915,14786 20022,14786 Z " />
       </g>
      </g>
      <g class="com.sun.star.drawing.CustomShape">
       <g id="id2192">
        <rect class="BoundingBox" stroke="none" fill="none" x="20896" y="4608" width="1814" height="10197" />
        <path fill="var(--acc-5, #48633E)" stroke="none" d="M 21803,14786 L 20914,14786 20914,4626 22691,4626 22691,14786 21803,14786 Z " />
        <path fill="none" stroke="var(--on-acc, #F0F0FA)" stroke-width="35" stroke-linejoin="miter" d="M 21803,14786 L 20914,14786 20914,4626 22691,4626 22691,14786 21803,14786 Z " />
       </g>
      </g>
      <g class="com.sun.star.drawing.CustomShape">
       <g id="id2193">
        <rect class="BoundingBox" stroke="none" fill="none" x="22674" y="4608" width="1819" height="10197" />
        <path fill="var(--acc-5, #48633E)" stroke="none" d="M 23583,14786 L 22692,14786 22692,4626 24474,4626 24474,14786 23583,14786 Z " />
        <path fill="none" stroke="var(--on-acc, #F0F0FA)" stroke-width="35" stroke-linejoin="miter" d="M 23583,14786 L 22692,14786 22692,4626 24474,4626 24474,14786 23583,14786 Z " />
       </g>
      </g>
      <g class="com.sun.star.drawing.LineShape">
       <g id="id2206">
        <rect class="BoundingBox" stroke="none" fill="none" x="6703" y="5168" width="3604" height="107" />
        <path fill="none" stroke="var(--lime, #B8FF00)" stroke-width="106" stroke-linejoin="miter" d="M 6703,5221 L 10306,5221 " />
       </g>
      </g>
      <g class="com.sun.star.drawing.LineShape">
       <g id="id2207">
        <rect class="BoundingBox" stroke="none" fill="none" x="6702" y="6001" width="3610" height="120" />
        <path fill="none" stroke="var(--acc-3, #ABB7A6)" stroke-width="106" stroke-linejoin="miter" d="M 6703,6067 L 10310,6054 " />
       </g>
      </g>
      <g class="com.sun.star.drawing.LineShape">
       <g id="id2208">
        <rect class="BoundingBox" stroke="none" fill="none" x="6703" y="6755" width="3604" height="319" />
        <path fill="none" stroke="var(--lime, #B8FF00)" stroke-width="106" stroke-linejoin="miter" d="M 6703,6914 L 10009,6914 " />
        <path fill="var(--lime, #B8FF00)" stroke="none" d="M 10306,6914 L 9988,7073 9988,6755 10306,6914 Z " />
       </g>
      </g>
      <g class="com.sun.star.drawing.LineShape">
       <g id="id2209">
        <rect class="BoundingBox" stroke="none" fill="none" x="6703" y="7589" width="3604" height="319" />
        <path fill="none" stroke="var(--acc-3, #ABB7A6)" stroke-width="106" stroke-linejoin="miter" d="M 6703,7748 L 10009,7748 " />
        <path fill="var(--acc-3, #ABB7A6)" stroke="none" d="M 10306,7748 L 9988,7907 9988,7589 10306,7748 Z " />
       </g>
      </g>
      <g class="com.sun.star.drawing.LineShape">
       <g id="id2210">
        <rect class="BoundingBox" stroke="none" fill="none" x="6703" y="8520" width="3604" height="107" />
        <path fill="none" stroke="var(--acc-5, #48633E)" stroke-width="106" stroke-linejoin="miter" d="M 6703,8573 L 10306,8573 " />
       </g>
      </g>
      <g class="com.sun.star.drawing.LineShape">
       <g id="id2211">
        <rect class="BoundingBox" stroke="none" fill="none" x="6703" y="9375" width="3604" height="107" />
        <path fill="none" stroke="var(--acc-3, #ABB7A6)" stroke-width="106" stroke-linejoin="miter" d="M 6703,9428 L 10306,9428 " />
       </g>
      </g>
      <g class="com.sun.star.drawing.LineShape">
       <g id="id2212">
        <rect class="BoundingBox" stroke="none" fill="none" x="6703" y="10116" width="3586" height="319" />
        <path fill="none" stroke="var(--acc-5, #48633E)" stroke-width="106" stroke-linejoin="miter" d="M 6703,10275 L 9991,10275 " />
        <path fill="var(--acc-5, #48633E)" stroke="none" d="M 10288,10275 L 9970,10434 9970,10116 10288,10275 Z " />
       </g>
      </g>
      <g class="com.sun.star.drawing.LineShape">
       <g id="id2213">
        <rect class="BoundingBox" stroke="none" fill="none" x="6703" y="10843" width="3551" height="319" />
        <path fill="none" stroke="var(--acc-3, #ABB7A6)" stroke-width="106" stroke-linejoin="miter" d="M 6703,11002 L 9956,11002 " />
        <path fill="var(--acc-3, #ABB7A6)" stroke="none" d="M 10253,11002 L 9935,11161 9935,10843 10253,11002 Z " />
       </g>
      </g>
      <g class="com.sun.star.drawing.CustomShape">
       <g id="id2214">
        <rect class="BoundingBox" stroke="none" fill="none" x="6963" y="11645" width="599" height="430" />
        <path fill="var(--lime, #B8FF00)" stroke="none" d="M 7261,11676 L 7527,12056 6997,12056 7261,11676 Z " />
        <path fill="none" stroke="var(--lime, #B8FF00)" stroke-width="35" stroke-linejoin="miter" d="M 7261,11676 L 7527,12056 6997,12056 7261,11676 Z " />
       </g>
      </g>
      <g class="com.sun.star.drawing.CustomShape">
       <g id="id2215">
        <rect class="BoundingBox" stroke="none" fill="none" x="6963" y="12465" width="599" height="430" />
        <path fill="var(--acc-5, #48633E)" stroke="none" d="M 7261,12496 L 7527,12876 6997,12876 7261,12496 Z " />
        <path fill="none" stroke="var(--acc-5, #48633E)" stroke-width="35" stroke-linejoin="miter" d="M 7261,12496 L 7527,12876 6997,12876 7261,12496 Z " />
       </g>
      </g>
      <g class="com.sun.star.drawing.LineShape">
       <g id="id2216">
        <rect class="BoundingBox" stroke="none" fill="none" x="375" y="4603" width="6382" height="37" />
        <path fill="none" stroke="var(--on-acc, #F0F0FA)" stroke-width="35" stroke-linejoin="miter" d="M 375,4621 L 6756,4621 " />
       </g>
      </g>
      <g class="com.sun.star.drawing.LineShape">
       <g id="id2217">
        <rect class="BoundingBox" stroke="none" fill="none" x="374" y="14772" width="6384" height="42" />
        <path fill="none" stroke="var(--on-acc, #F0F0FA)" stroke-width="35" stroke-linejoin="miter" d="M 375,14790 L 6756,14795 " />
       </g>
      </g>
      <g class="com.sun.star.drawing.LineShape">
       <g id="id2194">
        <rect class="BoundingBox" stroke="none" fill="none" x="6632" y="3752" width="17812" height="37" />
        <path fill="none" stroke="var(--on-acc, #F0F0FA)" stroke-width="35" stroke-linejoin="miter" d="M 6632,3770 L 24443,3770 " />
       </g>
      </g>
      </svg>