<?xml version='1.0' encoding='utf-8'?>
<svg xmlns="http://www.w3.org/2000/svg" viewBox="98.71 86.81 350.75 399.66" shape-rendering="geometricPrecision" width="1024" height="1166.79" preserveAspectRatio="xMidYMid meet"><path fill-rule="evenodd" fill="var(--acc-3, #ABB7A6)" fill-opacity="1" stroke-width="0.7395" stroke-linecap="round" stroke-linejoin="round" stroke="var(--on-acc, #F0F0FA)" stroke-opacity="1" stroke-miterlimit="10" d="M 247.633532 240.804509 L 289.616532 113.357234 L 296.392022 115.598779 L 302.40077 118.599241 L 308.382135 120.840786 L 314.3635 124.580606 L 320.372248 127.616276 L 325.614255 131.356096 L 330.887558 135.862657 L 336.133477 140.341835 L 341.375484 144.848396 L 345.882046 149.327574 L 350.361223 154.573493 L 354.867785 159.8155 L 358.611517 165.061419 L 362.382632 171.070167 L 365.355711 177.051532 L 368.360085 183.060281 L 371.368371 189.072941 L 373.606004 195.081689 L 375.874932 201.825884 L 378.143861 208.57399 L 379.614752 214.555355 L 380.381494 221.299549 L 381.11694 228.047655 L 381.856297 234.791849 L 381.856297 248.284149 L 381.11694 255.032256 L 380.381494 261.780362 L 378.879307 268.524556 L 377.37712 275.272662 L 375.874932 281.281411 L 373.606004 287.998221 L 370.629013 294.010882 L 364.620265 306.028378 L 361.643274 312.009743 L 357.872159 318.018492 L 353.396893 323.264411 L 349.625778 328.506418 L 345.1466 332.985596 L 339.873297 338.231515 L 335.394119 342.738076 L 330.124729 346.477896 L 324.112068 350.984457 L 318.897445 354.755573 L 312.888696 357.759947 L 306.879948 361.503679 L 300.867288 363.741312 L 294.889835 366.745686 L 288.141729 368.983319 L 282.13298 370.489418 L 275.35749 371.991605 L 268.64068 373.493792 L 261.892574 374.229238 L 255.117084 374.995979 L 248.37289 374.995979 Z M 247.633532 240.804509 " transform="matrix(0.998544, 0, 0, -0.998544, 0.285604, 528.457816)" />
<path fill-rule="evenodd" fill="var(--acc-5, #48633E)" fill-opacity="1" stroke-width="0.7395" stroke-linecap="round" stroke-linejoin="round" stroke="var(--on-acc, #F0F0FA)" stroke-opacity="1" stroke-miterlimit="10" d="M 247.633532 240.804509 L 139.63645 161.317687 L 144.143011 155.336322 L 148.618277 150.094315 L 153.156134 145.587754 L 158.370757 140.341835 L 163.64406 135.862657 L 169.652808 131.356096 L 175.634173 127.616276 L 181.615538 123.84516 L 187.624286 120.840786 L 193.636947 117.836412 L 200.381141 114.859421 L 207.129247 112.590493 L 213.873441 111.088305 L 220.648931 109.613502 L 227.393125 108.111315 L 234.113848 107.348485 L 241.624783 106.609128 L 255.117084 106.609128 L 262.631931 107.348485 L 269.376126 108.111315 L 276.124232 109.613502 L 282.868426 111.088305 L 289.616532 113.357234 Z M 247.633532 240.804509 " transform="matrix(0.998544, 0, 0, -0.998544, 0.285604, 528.457816)" />
<path fill-rule="evenodd" fill="var(--acc-5, #48633E)" fill-opacity="1" stroke-width="0.7395" stroke-linecap="round" stroke-linejoin="round" stroke="var(--on-acc, #F0F0FA)" stroke-opacity="1" stroke-miterlimit="10" d="M 247.633532 240.804509 L 120.131489 282.020768 L 117.893856 275.272662 L 116.391669 268.524556 L 114.889482 261.780362 L 114.122741 254.29681 L 113.387295 247.548704 L 113.387295 233.289662 L 114.122741 226.545468 L 114.889482 219.061916 L 116.391669 212.31381 L 117.893856 205.569616 L 120.131489 198.821509 L 122.373034 192.073403 L 125.377408 185.329209 L 128.381782 179.320461 L 132.121602 172.572354 L 135.892718 166.563606 L 139.63645 161.317687 Z M 247.633532 240.804509 " transform="matrix(0.998544, 0, 0, -0.998544, 0.285604, 528.457816)" />
<path fill-rule="evenodd" fill="var(--acc-5, #48633E)" fill-opacity="1" stroke-width="0.7395" stroke-linecap="round" stroke-linejoin="round" stroke="var(--on-acc, #F0F0FA)" stroke-opacity="1" stroke-miterlimit="10" d="M 247.633532 240.804509 L 168.886067 349.48227 L 164.379506 345.74245 L 159.900328 342.738076 L 156.133124 338.994344 L 151.653947 334.487783 L 147.882831 330.744051 L 144.143011 326.237489 L 140.371896 321.758312 L 137.394905 317.25175 L 134.363147 312.772573 L 131.386157 307.530566 L 128.381782 303.024004 L 126.140237 297.778085 L 123.875221 292.508694 L 121.633676 287.262775 L 120.131489 282.020768 Z M 247.633532 240.804509 " transform="matrix(0.998544, 0, 0, -0.998544, 0.285604, 528.457816)" />
<path fill-rule="evenodd" fill="var(--acc-5, #48633E)" fill-opacity="1" stroke-width="0.7395" stroke-linecap="round" stroke-linejoin="round" stroke="var(--on-acc, #F0F0FA)" stroke-opacity="1" stroke-miterlimit="10" d="M 247.633532 240.804509 L 248.37289 374.995979 L 242.360229 374.995979 L 237.145606 374.229238 L 231.136857 374.229238 L 225.863555 373.493792 L 220.648931 371.991605 L 214.640183 371.224864 L 209.36688 369.75006 L 204.124873 367.481132 L 198.878954 365.982857 L 193.636947 363.741312 L 188.391028 361.503679 L 183.117725 358.495393 L 178.638547 355.494931 L 173.365245 352.486644 L 168.886067 349.48227 Z M 247.633532 240.804509 " transform="matrix(0.998544, 0, 0, -0.998544, 0.285604, 528.457816)" />
<path fill="none" stroke-width="0.99211" stroke-linecap="butt" stroke-linejoin="miter" stroke="var(--lime, #B8FF00)" stroke-opacity="1" stroke-miterlimit="3.863703" d="M 248.740612 376.611613 L 418.253039 427.462994 " transform="matrix(0.998544, 0, 0, -0.998544, 0.285604, 528.457816)" />
<path fill="none" stroke-width="0.99211" stroke-linecap="butt" stroke-linejoin="miter" stroke="var(--lime, #B8FF00)" stroke-opacity="1" stroke-miterlimit="3.863703" d="M 294.009647 111.7416 L 435.00399 56.864828 " transform="matrix(0.998544, 0, 0, -0.998544, 0.285604, 528.457816)" />
</svg>