<?xml version='1.0' encoding='utf-8'?>
<svg xmlns="http://www.w3.org/2000/svg" viewBox="148.63 88.97 468.13 359.24" shape-rendering="geometricPrecision" width="1024" height="785.81" preserveAspectRatio="xMidYMid meet"><path fill="none" stroke-width="0.74886" stroke-linecap="round" stroke-linejoin="round" stroke="var(--tx1, #2B2E33)" stroke-opacity="1" stroke-miterlimit="10" d="M 166.930094 421.767201 L 166.930094 98.730469 L 171.409272 98.730469 " transform="matrix(0.998544, 0, 0, -0.998544, 0.285604, 528.457816)" />
<path fill="none" stroke-width="0.74886" stroke-linecap="round" stroke-linejoin="round" stroke="var(--tx1, #2B2E33)" stroke-opacity="1" stroke-miterlimit="10" d="M 166.930094 152.558841 L 171.409272 152.558841 " transform="matrix(0.998544, 0, 0, -0.998544, 0.285604, 528.457816)" />
<path fill="none" stroke-width="0.74886" stroke-linecap="round" stroke-linejoin="round" stroke="var(--tx1, #2B2E33)" stroke-opacity="1" stroke-miterlimit="10" d="M 166.930094 206.418508 L 171.409272 206.418508 " transform="matrix(0.998544, 0, 0, -0.998544, 0.285604, 528.457816)" />
<path fill="none" stroke-width="0.74886" stroke-linecap="round" stroke-linejoin="round" stroke="var(--tx1, #2B2E33)" stroke-opacity="1" stroke-miterlimit="10" d="M 166.930094 260.246879 L 171.409272 260.246879 " transform="matrix(0.998544, 0, 0, -0.998544, 0.285604, 528.457816)" />
<path fill="none" stroke-width="0.74886" stroke-linecap="round" stroke-linejoin="round" stroke="var(--tx1, #2B2E33)" stroke-opacity="1" stroke-miterlimit="10" d="M 166.930094 314.106546 L 171.409272 314.106546 " transform="matrix(0.998544, 0, 0, -0.998544, 0.285604, 528.457816)" />
<path fill="none" stroke-width="0.74886" stroke-linecap="round" stroke-linejoin="round" stroke="var(--tx1, #2B2E33)" stroke-opacity="1" stroke-miterlimit="10" d="M 166.930094 367.938829 L 171.409272 367.938829 " transform="matrix(0.998544, 0, 0, -0.998544, 0.285604, 528.457816)" />
<path fill="none" stroke-width="0.74886" stroke-linecap="round" stroke-linejoin="round" stroke="var(--tx1, #2B2E33)" stroke-opacity="1" stroke-miterlimit="10" d="M 166.930094 421.767201 L 171.409272 421.767201 " transform="matrix(0.998544, 0, 0, -0.998544, 0.285604, 528.457816)" />
<path fill="none" stroke-width="0.74886" stroke-linecap="round" stroke-linejoin="round" stroke="var(--tx1, #2B2E33)" stroke-opacity="1" stroke-miterlimit="10" d="M 166.930094 98.730469 L 599.016221 98.730469 " transform="matrix(0.998544, 0, 0, -0.998544, 0.285604, 528.457816)" />
<path fill="none" stroke-width="0.74886" stroke-linecap="round" stroke-linejoin="round" stroke="var(--tx1, #2B2E33)" stroke-opacity="1" stroke-miterlimit="10" d="M 166.930094 98.730469 L 166.930094 103.209647 " transform="matrix(0.998544, 0, 0, -0.998544, 0.285604, 528.457816)" />
<path fill="none" stroke-width="0.74886" stroke-linecap="round" stroke-linejoin="round" stroke="var(--tx1, #2B2E33)" stroke-opacity="1" stroke-miterlimit="10" d="M 274.762875 98.730469 L 274.762875 103.209647 " transform="matrix(0.998544, 0, 0, -0.998544, 0.285604, 528.457816)" />
<path fill="none" stroke-width="0.74886" stroke-linecap="round" stroke-linejoin="round" stroke="var(--tx1, #2B2E33)" stroke-opacity="1" stroke-miterlimit="10" d="M 383.358484 98.730469 L 383.358484 103.209647 " transform="matrix(0.998544, 0, 0, -0.998544, 0.285604, 528.457816)" />
<path fill="none" stroke-width="0.74886" stroke-linecap="round" stroke-linejoin="round" stroke="var(--tx1, #2B2E33)" stroke-opacity="1" stroke-miterlimit="10" d="M 491.187353 98.730469 L 491.187353 103.209647 " transform="matrix(0.998544, 0, 0, -0.998544, 0.285604, 528.457816)" />
<path fill="none" stroke-width="0.74886" stroke-linecap="round" stroke-linejoin="round" stroke="var(--tx1, #2B2E33)" stroke-opacity="1" stroke-miterlimit="10" d="M 599.016221 98.730469 L 599.016221 103.209647 " transform="matrix(0.998544, 0, 0, -0.998544, 0.285604, 528.457816)" />
<path fill="none" stroke-width="2.24657" stroke-linecap="round" stroke-linejoin="round" stroke="var(--tx1, #2B2E33)" stroke-opacity="1" stroke-miterlimit="10" d="M 166.930094 98.730469 L 166.930094 163.046767 L 253.047665 163.046767 L 253.047665 98.730469 L 253.047665 184.734593 L 361.615891 184.734593 L 361.615891 98.730469 L 361.615891 287.176713 L 447.760845 287.176713 L 447.760845 98.730469 L 447.760845 314.106546 L 491.187353 314.106546 L 491.187353 98.730469 L 491.187353 363.459652 L 523.390489 363.459652 L 523.390489 98.730469 " transform="matrix(0.998544, 0, 0, -0.998544, 0.285604, 528.457816)" />
</svg>